<svg xmlns="http://www.w3.org/2000/svg" viewBox="0 0 100 100" fill="none">
  <defs>
    <!-- Background gradient purple-indigo-cyan matching your circular avatar backplate -->
    <linearGradient id="bgGrad" x1="0%" y1="100%" x2="100%" y2="0%">
      <stop offset="0%" stop-color="#9333ea" />
      <stop offset="50%" stop-color="#4f46e5" />
      <stop offset="100%" stop-color="#06b6d4" />
    </linearGradient>
  </defs>

  <!-- Circular Badge Background -->
  <circle cx="50" cy="50" r="48" fill="url(#bgGrad)" />

  <!-- Cursive Handwriting "AN" Monogram -->
  <path 
    d="M 22 64 C 20 48 36 22 44 22 C 51 22 49 42 42 58 C 36 68 28 72 24 62 C 22 52 30 52 44 52 C 54 52 56 38 60 33 C 64 28 66 34 65 44 C 63 56 70 68 76 68 C 82 68 83 48 82 38 C 81 30 85 34 87 43" 
    stroke="#ffffff" 
    stroke-width="6.5" 
    stroke-linecap="round" 
    stroke-linejoin="round" 
  />
</svg>